Coordinates
version=1
nRows=5
nColumns=40
inDegrees=yes

Units are S.I. units (second, meters, Newtons, ...)
Angles are in degrees.

endheader
time	pelvis_tilt	pelvis_list	pelvis_rotation	pelvis_tx	pelvis_ty	pelvis_tz	hip_flexion_r	hip_adduction_r	hip_rotation_r	knee_angle_r	knee_angle_r_beta	ankle_angle_r	subtalar_angle_r	mtp_angle_r	hip_flexion_l	hip_adduction_l	hip_rotation_l	knee_angle_l	knee_angle_l_beta	ankle_angle_l	subtalar_angle_l	mtp_angle_l	lumbar_extension	lumbar_bending	lumbar_rotation	arm_flex_r	arm_add_r	arm_rot_r	elbow_flex_r	pro_sup_r	wrist_flex_r	wrist_dev_r	arm_flex_l	arm_add_l	arm_rot_l	elbow_flex_l	pro_sup_l	wrist_flex_l	wrist_dev_l
      8.19000000	     -5.86758734	     -4.86797094	     -1.36224647	      0.98423052	      0.93001554	      0.43407431	     31.62790616	     -7.26868636	     -6.69530915	     70.63699170	     70.63699170	     -0.59388938	    -17.10991123	      2.81392373	     19.09777013	     -6.32124188	     -7.23332685	     23.56286705	     23.56286705	     12.76291320	     -8.40077298	      0.65682529	    -11.77206118	      4.94706665	      2.05305059	      8.10399228	    -14.41284250	     -3.92994297	     87.16981054	     45.31819161	      0.00000000	      0.00000000	      7.80593315	    -12.89577784	     -3.79986673	     53.56774724	     46.18803806	      0.00000000	      0.00000000
      8.20164286	     -5.80089369	     -4.86134728	     -1.53963003	      0.98310658	      0.93064145	      0.43403391	     32.89850701	     -7.14038208	     -6.49190496	     69.75876347	     69.75876347	     -0.52433440	    -16.49943151	      2.45326410	     18.16728328	     -6.31225763	     -7.50320216	     23.04038101	     23.04038101	     13.11175396	     -8.15942351	      0.59414753	    -11.97386107	      4.99430894	      2.70856989	      6.00797307	    -14.86854210	     -3.95218103	     83.74774349	     45.41833565	      0.00000000	      0.00000000	      9.74352327	    -13.00310826	     -3.94060692	     55.23366870	     46.24968606	      0.00000000	      0.00000000
      8.21328571	     -5.72598160	     -4.88738207	     -1.69605734	      0.98201903	      0.93118410	      0.43416262	     34.02305527	     -6.94985543	     -6.33116957	     68.65732304	     68.65732304	     -0.81878335	    -16.02926213	      1.41520234	     17.30003346	     -6.41146954	     -7.96997416	     22.65196598	     22.65196598	     13.48443708	     -7.56719220	      0.21775586	    -12.11141976	      5.02513733	      2.35857144	      5.67808567	    -14.02023809	     -4.81234368	     77.13414522	     45.64858037	      0.00000000	      0.00000000	     10.82542516	    -13.83773443	     -3.63356328	     57.61143064	     46.31002660	      0.00000000	      0.00000000
      8.22492857	     -5.62239475	     -4.86339174	     -1.89781124	      0.98100841	      0.93166233	      0.43425296	     35.00562157	     -6.79469774	     -6.15948538	     67.37099664	     67.37099664	     -0.83691316	    -15.45137571	      1.00541908	     16.36787218	     -6.41239052	     -8.39662421	     22.20450517	     22.20450517	     13.83404232	     -7.25326495	      0.03976847	    -12.36275138	      5.00304803	      2.76125299	      4.38371933	    -14.31881317	     -4.74323599	     72.95180724	     45.76956304	      0.00000000	      0.00000000	     12.48266469	    -14.07858554	     -3.80187700	     59.70945595	     46.38983394	      0.00000000	      0.00000000
      8.23657143	     -5.52595746	     -4.86567068	     -2.07196742	      0.98004416	      0.93207861	      0.43431342	     35.86497184	     -6.62524452	     -6.02222929	     65.83958749	     65.83958749	     -0.95757715	    -14.74730464	      0.74477421	     15.43199599	     -6.42790909	     -8.74964743	     21.69953090	     21.69953090	     14.17151540	     -6.79042870	     -0.18246820	    -12.60300495	      5.06409797	      3.18279852	      3.32960733	    -14.43892656	     -4.82560143	     68.00252805	     45.92233440	      0.00000000	      0.00000000	     14.03501838	    -14.28550637	     -3.87195323	     61.85695059	     46.45940586	      0.00000000	      0.00000000
